<svg xmlns="http://www.w3.org/2000/svg" xmlns:xlink="http://www.w3.org/1999/xlink" width="900" zoomAndPan="magnify" viewBox="0 0 675 149.999998" height="200" preserveAspectRatio="xMidYMid meet" version="1.0"><defs><g/><clipPath id="b472dec85a"><path d="M 21.25 72.496094 L 68.863281 72.496094 L 68.863281 77.859375 L 21.25 77.859375 Z M 21.25 72.496094 " clip-rule="nonzero"/></clipPath><clipPath id="ec5d7b6b94"><path d="M 0 72.136719 L 16.300781 72.136719 L 16.300781 77.859375 L 0 77.859375 Z M 0 72.136719 " clip-rule="nonzero"/></clipPath><clipPath id="d6700b2fe0"><path d="M 71.769531 87.90625 L 76.539062 87.90625 L 76.539062 141.964844 L 71.769531 141.964844 Z M 71.769531 87.90625 " clip-rule="nonzero"/></clipPath><clipPath id="f3f1846232"><path d="M 71.769531 101.316406 L 85.3125 101.316406 L 85.3125 106.3125 L 71.769531 106.3125 Z M 71.769531 101.316406 " clip-rule="nonzero"/></clipPath><clipPath id="698b06b679"><path d="M 71.769531 137.1875 L 87.351562 137.1875 L 87.351562 141.957031 L 71.769531 141.957031 Z M 71.769531 137.1875 " clip-rule="nonzero"/></clipPath><clipPath id="3a29352acc"><path d="M 89.453125 125.644531 L 98.238281 125.644531 L 98.238281 130.699219 L 89.453125 130.699219 Z M 89.453125 125.644531 " clip-rule="nonzero"/></clipPath><clipPath id="e8c1ee45bd"><path d="M 102.066406 114.546875 L 118.425781 114.546875 L 118.425781 119.320312 L 102.066406 119.320312 Z M 102.066406 114.546875 " clip-rule="nonzero"/></clipPath><clipPath id="3054384965"><path d="M 96.734375 99 L 126.800781 99 L 126.800781 103.703125 L 96.734375 103.703125 Z M 96.734375 99 " clip-rule="nonzero"/></clipPath><clipPath id="39f7ecf1a2"><path d="M 109.15625 87.90625 L 114.382812 87.90625 L 114.382812 100.332031 L 109.15625 100.332031 Z M 109.15625 87.90625 " clip-rule="nonzero"/></clipPath><clipPath id="74dd71f4ae"><path d="M 108.441406 137.1875 L 145.167969 137.1875 L 145.167969 141.957031 L 108.441406 141.957031 Z M 108.441406 137.1875 " clip-rule="nonzero"/></clipPath><clipPath id="7b3e42acb4"><path d="M 123.207031 125.726562 L 128 125.726562 L 128 139.496094 L 123.207031 139.496094 Z M 123.207031 125.726562 " clip-rule="nonzero"/></clipPath><clipPath id="64585ba5d7"><path d="M 140.386719 103.707031 L 145.167969 103.707031 L 145.167969 137.550781 L 140.386719 137.550781 Z M 140.386719 103.707031 " clip-rule="nonzero"/></clipPath><clipPath id="d5520426b8"><path d="M 140.386719 87.90625 L 145.167969 87.90625 L 145.167969 95.410156 L 140.386719 95.410156 Z M 140.386719 87.90625 " clip-rule="nonzero"/></clipPath><clipPath id="5f5a4399c9"><path d="M 85.3125 81.242188 L 97.175781 81.242188 L 97.175781 86.011719 L 85.3125 86.011719 Z M 85.3125 81.242188 " clip-rule="nonzero"/></clipPath><clipPath id="ef93a1010c"><path d="M 98.238281 69.980469 L 109.160156 69.980469 L 109.160156 75.203125 L 98.238281 75.203125 Z M 98.238281 69.980469 " clip-rule="nonzero"/></clipPath><clipPath id="e5adac4ff2"><path d="M 122.105469 76.023438 L 128.71875 76.023438 L 128.71875 81.246094 L 122.105469 81.246094 Z M 122.105469 76.023438 " clip-rule="nonzero"/></clipPath><clipPath id="e3ef8a484b"><path d="M 135.609375 70.796875 L 145.167969 70.796875 L 145.167969 76.023438 L 135.609375 76.023438 Z M 135.609375 70.796875 " clip-rule="nonzero"/></clipPath><clipPath id="dfb12e7eb6"><path d="M 0 87.25 L 63.21875 87.25 L 63.21875 150 L 0 150 Z M 0 87.25 " clip-rule="nonzero"/></clipPath><clipPath id="c1ce2a34c7"><path d="M 13.707031 101.203125 L 49.425781 101.203125 L 49.425781 136.433594 L 13.707031 136.433594 Z M 13.707031 101.203125 " clip-rule="nonzero"/></clipPath><clipPath id="01b7afa09d"><path d="M 0 0 L 63.21875 0 L 63.21875 62.832031 L 0 62.832031 Z M 0 0 " clip-rule="nonzero"/></clipPath><clipPath id="7aa87b2e0d"><path d="M 13.707031 13.566406 L 49.425781 13.566406 L 49.425781 48.796875 L 13.707031 48.796875 Z M 13.707031 13.566406 " clip-rule="nonzero"/></clipPath><clipPath id="c054e2c992"><path d="M 87.601562 0 L 150.816406 0 L 150.816406 62.832031 L 87.601562 62.832031 Z M 87.601562 0 " clip-rule="nonzero"/></clipPath><clipPath id="daca5d856f"><path d="M 101.308594 13.566406 L 137.027344 13.566406 L 137.027344 48.796875 L 101.308594 48.796875 Z M 101.308594 13.566406 " clip-rule="nonzero"/></clipPath><clipPath id="e49093c787"><path d="M 72.5 0 L 78.351562 0 L 78.351562 26.261719 L 72.5 26.261719 Z M 72.5 0 " clip-rule="nonzero"/></clipPath><clipPath id="60598948bb"><path d="M 72.5 36.113281 L 78.351562 36.113281 L 78.351562 50.3125 L 72.5 50.3125 Z M 72.5 36.113281 " clip-rule="nonzero"/></clipPath><clipPath id="04a52238dc"><path d="M 72.5 56.601562 L 78.351562 56.601562 L 78.351562 65.582031 L 72.5 65.582031 Z M 72.5 56.601562 " clip-rule="nonzero"/></clipPath></defs><g fill="#000000" fill-opacity="1"><g transform="translate(180.616639, 127.605166)"><g><path d="M 8.109375 0 L 8.109375 -108.875 L 45.46875 -108.875 L 45.46875 -94.453125 L 24.6875 -94.453125 L 24.6875 -65.515625 L 43.984375 -65.515625 L 43.984375 -51.03125 L 24.6875 -51.03125 L 24.6875 0 Z M 8.109375 0 "/></g></g></g><g fill="#000000" fill-opacity="1"><g transform="translate(241.89395, 127.605166)"><g><path d="M 8.78125 0 L 8.78125 -108.875 L 25.359375 -108.875 L 25.359375 0 Z M 8.78125 0 "/></g></g></g><g fill="#000000" fill-opacity="1"><g transform="translate(288.077292, 127.605166)"><g><path d="M 24.6875 -12.859375 L 30.125 -12.859375 C 33.175781 -12.859375 35.390625 -13.847656 36.765625 -15.828125 C 38.148438 -17.816406 38.84375 -21.445312 38.84375 -26.71875 L 38.78125 -80.484375 C 38.78125 -86.128906 38.085938 -90.144531 36.703125 -92.53125 C 35.328125 -94.925781 32.945312 -96.125 29.5625 -96.125 L 24.6875 -96.125 Z M 8.109375 0 L 8.109375 -108.875 L 32.53125 -108.875 C 40.53125 -108.875 46.332031 -106.507812 49.9375 -101.78125 C 53.550781 -97.0625 55.359375 -90.101562 55.359375 -80.90625 L 55.421875 -31.796875 C 55.421875 -20.828125 53.601562 -12.785156 49.96875 -7.671875 C 46.34375 -2.554688 40.347656 0 31.984375 0 Z M 8.109375 0 "/></g></g></g><g fill="#000000" fill-opacity="1"><g transform="translate(362.283446, 127.605166)"><g><path d="M 8.171875 0 L 8.171875 -108.875 L 44.65625 -108.875 L 44.65625 -94.578125 L 24.75 -94.578125 L 24.75 -62.90625 L 43.671875 -62.90625 L 43.671875 -48.9375 L 24.75 -48.9375 L 24.75 -14.296875 L 45.40625 -14.296875 L 45.40625 0 Z M 8.171875 0 "/></g></g></g><g fill="#000000" fill-opacity="1"><g transform="translate(424.79796, 127.605166)"><g><path d="M 8.171875 0 L 8.171875 -108.875 L 24.75 -108.875 L 24.75 -14.109375 L 45.71875 -14.109375 L 45.71875 0 Z M 8.171875 0 "/></g></g></g><g fill="#000000" fill-opacity="1"><g transform="translate(483.910159, 127.605166)"><g><path d="M 54.125 -29.6875 C 54.125 -19.175781 52.25 -11.394531 48.5 -6.34375 C 44.75 -1.289062 38.851562 1.234375 30.8125 1.234375 C 22.769531 1.234375 16.753906 -1.453125 12.765625 -6.828125 C 8.785156 -12.210938 6.796875 -19.957031 6.796875 -30.0625 L 6.796875 -77.515625 C 6.796875 -93.710938 11.046875 -103.832031 19.546875 -107.875 C 22.679688 -109.363281 26.472656 -110.109375 30.921875 -110.109375 C 46.222656 -110.109375 53.875 -100.457031 53.875 -81.15625 L 53.875 -66.1875 L 37.859375 -66.1875 L 37.859375 -80.109375 C 37.859375 -85.710938 37.382812 -89.722656 36.4375 -92.140625 C 35.488281 -94.554688 33.628906 -95.765625 30.859375 -95.765625 C 28.097656 -95.765625 26.179688 -94.484375 25.109375 -91.921875 C 24.035156 -89.367188 23.5 -85.453125 23.5 -80.171875 L 23.5 -29.328125 C 23.5 -23.460938 24.015625 -19.269531 25.046875 -16.75 C 26.078125 -14.238281 27.953125 -12.984375 30.671875 -12.984375 C 33.398438 -12.984375 35.28125 -14.257812 36.3125 -16.8125 C 37.34375 -19.375 37.859375 -23.601562 37.859375 -29.5 L 37.859375 -45.09375 L 54.125 -45.09375 Z M 54.125 -29.6875 "/></g></g></g><g fill="#000000" fill-opacity="1"><g transform="translate(555.394464, 127.605166)"><g><path d="M 8.171875 0 L 8.171875 -108.875 L 24.75 -108.875 L 24.75 -14.109375 L 45.71875 -14.109375 L 45.71875 0 Z M 8.171875 0 "/></g></g></g><g fill="#000000" fill-opacity="1"><g transform="translate(614.506664, 127.605166)"><g><path d="M 18.8125 0 L 18.8125 -43.484375 L 0.5625 -108.875 L 16.390625 -108.875 L 27.15625 -68.171875 L 27.40625 -68.171875 L 36.984375 -108.875 L 52.765625 -108.875 L 35.390625 -43.484375 L 35.390625 0 Z M 18.8125 0 "/></g></g></g><g clip-path="url(#b472dec85a)"><path fill="#191308" d="M 21.25 77.859375 L 21.25 72.613281 L 68.792969 72.613281 L 68.792969 77.859375 Z M 21.25 77.859375 " fill-opacity="1" fill-rule="nonzero"/></g><g clip-path="url(#ec5d7b6b94)"><path fill="#191308" d="M 0 77.859375 L 0 72.285156 L 16.394531 72.285156 L 16.394531 77.859375 Z M 0 77.859375 " fill-opacity="1" fill-rule="nonzero"/></g><g clip-path="url(#d6700b2fe0)"><path fill="#191308" d="M 71.769531 87.90625 L 76.4375 87.90625 L 76.4375 142.121094 L 71.769531 142.121094 Z M 71.769531 87.90625 " fill-opacity="1" fill-rule="nonzero"/></g><g clip-path="url(#f3f1846232)"><path fill="#191308" d="M 71.769531 106.3125 L 71.769531 101.289062 L 85.414062 101.289062 L 85.414062 106.3125 Z M 71.769531 106.3125 " fill-opacity="1" fill-rule="nonzero"/></g><g clip-path="url(#698b06b679)"><path fill="#191308" d="M 71.769531 141.957031 L 71.769531 137.289062 L 87.207031 137.289062 L 87.207031 141.957031 Z M 71.769531 141.957031 " fill-opacity="1" fill-rule="nonzero"/></g><g clip-path="url(#3a29352acc)"><path fill="#191308" d="M 89.453125 130.699219 L 89.453125 125.671875 L 98.070312 125.671875 L 98.070312 130.699219 Z M 89.453125 130.699219 " fill-opacity="1" fill-rule="nonzero"/></g><g clip-path="url(#e8c1ee45bd)"><path fill="#191308" d="M 102.066406 119.320312 L 102.066406 114.652344 L 118.582031 114.652344 L 118.582031 119.320312 Z M 102.066406 119.320312 " fill-opacity="1" fill-rule="nonzero"/></g><g clip-path="url(#3054384965)"><path fill="#191308" d="M 96.734375 103.703125 L 96.734375 99.035156 L 126.890625 99.035156 L 126.890625 103.703125 Z M 96.734375 103.703125 " fill-opacity="1" fill-rule="nonzero"/></g><g clip-path="url(#39f7ecf1a2)"><path fill="#191308" d="M 109.15625 87.90625 L 114.542969 87.90625 L 114.542969 100.472656 L 109.15625 100.472656 Z M 109.15625 87.90625 " fill-opacity="1" fill-rule="nonzero"/></g><g clip-path="url(#74dd71f4ae)"><path fill="#191308" d="M 108.441406 141.957031 L 108.441406 137.289062 L 145.0625 137.289062 L 145.0625 141.957031 Z M 108.441406 141.957031 " fill-opacity="1" fill-rule="nonzero"/></g><g clip-path="url(#7b3e42acb4)"><path fill="#191308" d="M 123.207031 125.726562 L 127.875 125.726562 L 127.875 139.371094 L 123.207031 139.371094 Z M 123.207031 125.726562 " fill-opacity="1" fill-rule="nonzero"/></g><g clip-path="url(#64585ba5d7)"><path fill="#191308" d="M 140.386719 103.707031 L 145.054688 103.707031 L 145.054688 137.457031 L 140.386719 137.457031 Z M 140.386719 103.707031 " fill-opacity="1" fill-rule="nonzero"/></g><g clip-path="url(#d5520426b8)"><path fill="#191308" d="M 140.386719 87.90625 L 145.054688 87.90625 L 145.054688 95.445312 L 140.386719 95.445312 Z M 140.386719 87.90625 " fill-opacity="1" fill-rule="nonzero"/></g><g clip-path="url(#5f5a4399c9)"><path fill="#191308" d="M 85.3125 86.011719 L 85.3125 81.34375 L 97.160156 81.34375 L 97.160156 86.011719 Z M 85.3125 86.011719 " fill-opacity="1" fill-rule="nonzero"/></g><g clip-path="url(#ef93a1010c)"><path fill="#191308" d="M 98.238281 75.203125 L 98.238281 69.816406 L 109.011719 69.816406 L 109.011719 75.203125 Z M 98.238281 75.203125 " fill-opacity="1" fill-rule="nonzero"/></g><g clip-path="url(#e5adac4ff2)"><path fill="#191308" d="M 122.105469 81.246094 L 122.105469 75.859375 L 128.566406 75.859375 L 128.566406 81.246094 Z M 122.105469 81.246094 " fill-opacity="1" fill-rule="nonzero"/></g><g clip-path="url(#e3ef8a484b)"><path fill="#191308" d="M 135.609375 76.023438 L 135.609375 70.636719 L 145.304688 70.636719 L 145.304688 76.023438 Z M 135.609375 76.023438 " fill-opacity="1" fill-rule="nonzero"/></g><g clip-path="url(#dfb12e7eb6)"><path fill="#191308" d="M 3.511719 90.761719 L 59.707031 90.761719 L 59.707031 146.957031 L 3.511719 146.957031 Z M 0 150.46875 L 63.21875 150.46875 L 63.21875 87.25 L 0 87.25 L 0 150.46875 " fill-opacity="1" fill-rule="nonzero"/></g><g clip-path="url(#c1ce2a34c7)"><path fill="#191308" d="M 13.707031 101.203125 L 49.4375 101.203125 L 49.4375 136.347656 L 13.707031 136.347656 Z M 13.707031 101.203125 " fill-opacity="1" fill-rule="nonzero"/></g><g clip-path="url(#01b7afa09d)"><path fill="#191308" d="M 3.511719 3.125 L 59.707031 3.125 L 59.707031 59.320312 L 3.511719 59.320312 Z M 0 62.832031 L 63.21875 62.832031 L 63.21875 -0.386719 L 0 -0.386719 L 0 62.832031 " fill-opacity="1" fill-rule="nonzero"/></g><g clip-path="url(#7aa87b2e0d)"><path fill="#191308" d="M 13.707031 13.566406 L 49.4375 13.566406 L 49.4375 48.710938 L 13.707031 48.710938 Z M 13.707031 13.566406 " fill-opacity="1" fill-rule="nonzero"/></g><g clip-path="url(#c054e2c992)"><path fill="#191308" d="M 91.113281 3.125 L 147.304688 3.125 L 147.304688 59.320312 L 91.113281 59.320312 Z M 87.601562 62.832031 L 150.816406 62.832031 L 150.816406 -0.386719 L 87.601562 -0.386719 L 87.601562 62.832031 " fill-opacity="1" fill-rule="nonzero"/></g><g clip-path="url(#daca5d856f)"><path fill="#191308" d="M 101.308594 13.566406 L 137.035156 13.566406 L 137.035156 48.710938 L 101.308594 48.710938 Z M 101.308594 13.566406 " fill-opacity="1" fill-rule="nonzero"/></g><g clip-path="url(#e49093c787)"><path fill="#191308" d="M 78.351562 26.261719 L 72.65625 26.261719 L 72.65625 -0.542969 L 78.351562 -0.542969 Z M 78.351562 26.261719 " fill-opacity="1" fill-rule="nonzero"/></g><g clip-path="url(#60598948bb)"><path fill="#191308" d="M 78.351562 50.3125 L 72.65625 50.3125 L 72.65625 36.238281 L 78.351562 36.238281 Z M 78.351562 50.3125 " fill-opacity="1" fill-rule="nonzero"/></g><g clip-path="url(#04a52238dc)"><path fill="#191308" d="M 78.351562 65.582031 L 72.65625 65.582031 L 72.65625 56.535156 L 78.351562 56.535156 Z M 78.351562 65.582031 " fill-opacity="1" fill-rule="nonzero"/></g></svg>