<svg xmlns="http://www.w3.org/2000/svg" xmlns:xlink="http://www.w3.org/1999/xlink" width="600" zoomAndPan="magnify" viewBox="0 0 450 449.999984" height="600" preserveAspectRatio="xMidYMid meet" version="1.0"><defs><g/><clipPath id="0e9e6b6afb"><path d="M 169.5625 148 L 218.335938 148 L 218.335938 153.433594 L 169.5625 153.433594 Z M 169.5625 148 " clip-rule="nonzero"/></clipPath><clipPath id="c499a82d82"><path d="M 147.792969 147.570312 L 164.492188 147.570312 L 164.492188 153.433594 L 147.792969 153.433594 Z M 147.792969 147.570312 " clip-rule="nonzero"/></clipPath><clipPath id="10b67eeb0e"><path d="M 221.316406 163.722656 L 226.203125 163.722656 L 226.203125 219.101562 L 221.316406 219.101562 Z M 221.316406 163.722656 " clip-rule="nonzero"/></clipPath><clipPath id="7e1326550d"><path d="M 221.3125 177.464844 L 235.1875 177.464844 L 235.1875 182.582031 L 221.3125 182.582031 Z M 221.3125 177.464844 " clip-rule="nonzero"/></clipPath><clipPath id="ada67a30b8"><path d="M 221.316406 214.210938 L 237.277344 214.210938 L 237.277344 219.097656 L 221.316406 219.097656 Z M 221.316406 214.210938 " clip-rule="nonzero"/></clipPath><clipPath id="84bf9ee03e"><path d="M 239.429688 202.386719 L 248.425781 202.386719 L 248.425781 207.5625 L 239.429688 207.5625 Z M 239.429688 202.386719 " clip-rule="nonzero"/></clipPath><clipPath id="a4448e6bb3"><path d="M 252.351562 191.019531 L 269.109375 191.019531 L 269.109375 195.90625 L 252.351562 195.90625 Z M 252.351562 191.019531 " clip-rule="nonzero"/></clipPath><clipPath id="d5ce54798c"><path d="M 246.886719 175.023438 L 277.6875 175.023438 L 277.6875 179.910156 L 246.886719 179.910156 Z M 246.886719 175.023438 " clip-rule="nonzero"/></clipPath><clipPath id="8ccba4d095"><path d="M 259.613281 163.722656 L 264.964844 163.722656 L 264.964844 176.453125 L 259.613281 176.453125 Z M 259.613281 163.722656 " clip-rule="nonzero"/></clipPath><clipPath id="07e5be91b4"><path d="M 258.878906 214.210938 L 296.503906 214.210938 L 296.503906 219.097656 L 258.878906 219.097656 Z M 258.878906 214.210938 " clip-rule="nonzero"/></clipPath><clipPath id="a3c77dda3e"><path d="M 274.007812 202.46875 L 278.96875 202.46875 L 278.96875 216.574219 L 274.007812 216.574219 Z M 274.007812 202.46875 " clip-rule="nonzero"/></clipPath><clipPath id="d14476cbe9"><path d="M 291.605469 179.914062 L 296.503906 179.914062 L 296.503906 214.582031 L 291.605469 214.582031 Z M 291.605469 179.914062 " clip-rule="nonzero"/></clipPath><clipPath id="320f76d616"><path d="M 291.605469 163.722656 L 296.503906 163.722656 L 296.503906 171.414062 L 291.605469 171.414062 Z M 291.605469 163.722656 " clip-rule="nonzero"/></clipPath><clipPath id="06edf091fc"><path d="M 235.1875 157 L 247.339844 157 L 247.339844 161.785156 L 235.1875 161.785156 Z M 235.1875 157 " clip-rule="nonzero"/></clipPath><clipPath id="de716fe199"><path d="M 248.429688 145.359375 L 259.617188 145.359375 L 259.617188 150.710938 L 248.429688 150.710938 Z M 248.429688 145.359375 " clip-rule="nonzero"/></clipPath><clipPath id="6b72352c94"><path d="M 272.878906 151.550781 L 279.652344 151.550781 L 279.652344 156.902344 L 272.878906 156.902344 Z M 272.878906 151.550781 " clip-rule="nonzero"/></clipPath><clipPath id="01d2984015"><path d="M 286.710938 146.199219 L 296.503906 146.199219 L 296.503906 151.550781 L 286.710938 151.550781 Z M 286.710938 146.199219 " clip-rule="nonzero"/></clipPath><clipPath id="1cb9d8e784"><path d="M 147.792969 163.054688 L 212.554688 163.054688 L 212.554688 227.816406 L 147.792969 227.816406 Z M 147.792969 163.054688 " clip-rule="nonzero"/></clipPath><clipPath id="c21fde8aa0"><path d="M 161.835938 177.347656 L 198.425781 177.347656 L 198.425781 213.4375 L 161.835938 213.4375 Z M 161.835938 177.347656 " clip-rule="nonzero"/></clipPath><clipPath id="6f2f23667d"><path d="M 147.792969 73.277344 L 212.554688 73.277344 L 212.554688 138.039062 L 147.792969 138.039062 Z M 147.792969 73.277344 " clip-rule="nonzero"/></clipPath><clipPath id="72c4d4f257"><path d="M 161.835938 87.570312 L 198.425781 87.570312 L 198.425781 123.664062 L 161.835938 123.664062 Z M 161.835938 87.570312 " clip-rule="nonzero"/></clipPath><clipPath id="8bd872db7a"><path d="M 237.53125 73.277344 L 302.292969 73.277344 L 302.292969 138.039062 L 237.53125 138.039062 Z M 237.53125 73.277344 " clip-rule="nonzero"/></clipPath><clipPath id="c0904d5f94"><path d="M 251.574219 87.570312 L 288.164062 87.570312 L 288.164062 123.664062 L 251.574219 123.664062 Z M 251.574219 87.570312 " clip-rule="nonzero"/></clipPath><clipPath id="dc8bc60e31"><path d="M 222.0625 73.277344 L 228.054688 73.277344 L 228.054688 100.574219 L 222.0625 100.574219 Z M 222.0625 73.277344 " clip-rule="nonzero"/></clipPath><clipPath id="9cc96af96e"><path d="M 222.0625 110.671875 L 228.054688 110.671875 L 228.054688 125.214844 L 222.0625 125.214844 Z M 222.0625 110.671875 " clip-rule="nonzero"/></clipPath><clipPath id="44d6ab5edb"><path d="M 222.0625 131.660156 L 228.054688 131.660156 L 228.054688 140.855469 L 222.0625 140.855469 Z M 222.0625 131.660156 " clip-rule="nonzero"/></clipPath></defs><g fill="#000000" fill-opacity="1"><g transform="translate(14.423101, 356.694586)"><g><path d="M 7 0 L 7 -94.109375 L 39.296875 -94.109375 L 39.296875 -81.65625 L 21.34375 -81.65625 L 21.34375 -56.625 L 38.015625 -56.625 L 38.015625 -44.109375 L 21.34375 -44.109375 L 21.34375 0 Z M 7 0 "/></g></g></g><g fill="#000000" fill-opacity="1"><g transform="translate(67.392214, 356.694586)"><g><path d="M 7.59375 0 L 7.59375 -94.109375 L 21.921875 -94.109375 L 21.921875 0 Z M 7.59375 0 "/></g></g></g><g fill="#000000" fill-opacity="1"><g transform="translate(107.313853, 356.694586)"><g><path d="M 21.34375 -11.125 L 26.046875 -11.125 C 28.679688 -11.125 30.59375 -11.976562 31.78125 -13.6875 C 32.976562 -15.394531 33.578125 -18.53125 33.578125 -23.09375 L 33.53125 -69.5625 C 33.53125 -74.445312 32.929688 -77.921875 31.734375 -79.984375 C 30.546875 -82.054688 28.488281 -83.09375 25.5625 -83.09375 L 21.34375 -83.09375 Z M 7 0 L 7 -94.109375 L 28.125 -94.109375 C 35.039062 -94.109375 40.054688 -92.066406 43.171875 -87.984375 C 46.296875 -83.910156 47.859375 -77.894531 47.859375 -69.9375 L 47.90625 -27.484375 C 47.90625 -18.003906 46.335938 -11.050781 43.203125 -6.625 C 40.066406 -2.207031 34.878906 0 27.640625 0 Z M 7 0 "/></g></g></g><g fill="#000000" fill-opacity="1"><g transform="translate(171.45887, 356.694586)"><g><path d="M 7.0625 0 L 7.0625 -94.109375 L 38.609375 -94.109375 L 38.609375 -81.765625 L 21.390625 -81.765625 L 21.390625 -54.390625 L 37.75 -54.390625 L 37.75 -42.296875 L 21.390625 -42.296875 L 21.390625 -12.359375 L 39.25 -12.359375 L 39.25 0 Z M 7.0625 0 "/></g></g></g><g fill="#000000" fill-opacity="1"><g transform="translate(225.497442, 356.694586)"><g><path d="M 7.0625 0 L 7.0625 -94.109375 L 21.390625 -94.109375 L 21.390625 -12.1875 L 39.515625 -12.1875 L 39.515625 0 Z M 7.0625 0 "/></g></g></g><g fill="#000000" fill-opacity="1"><g transform="translate(276.594997, 356.694586)"><g><path d="M 46.796875 -25.671875 C 46.796875 -16.578125 45.171875 -9.847656 41.921875 -5.484375 C 38.679688 -1.117188 33.582031 1.0625 26.625 1.0625 C 19.675781 1.0625 14.476562 -1.257812 11.03125 -5.90625 C 7.59375 -10.5625 5.875 -17.253906 5.875 -25.984375 L 5.875 -67 C 5.875 -81.007812 9.546875 -89.765625 16.890625 -93.265625 C 19.609375 -94.546875 22.890625 -95.1875 26.734375 -95.1875 C 39.960938 -95.1875 46.578125 -86.84375 46.578125 -70.15625 L 46.578125 -57.21875 L 32.71875 -57.21875 L 32.71875 -69.25 C 32.71875 -74.09375 32.304688 -77.554688 31.484375 -79.640625 C 30.671875 -81.734375 29.066406 -82.78125 26.671875 -82.78125 C 24.285156 -82.78125 22.628906 -81.671875 21.703125 -79.453125 C 20.773438 -77.242188 20.3125 -73.859375 20.3125 -69.296875 L 20.3125 -25.34375 C 20.3125 -20.28125 20.757812 -16.660156 21.65625 -14.484375 C 22.550781 -12.316406 24.171875 -11.234375 26.515625 -11.234375 C 28.867188 -11.234375 30.488281 -12.335938 31.375 -14.546875 C 32.269531 -16.753906 32.71875 -20.40625 32.71875 -25.5 L 32.71875 -38.984375 L 46.796875 -38.984375 Z M 46.796875 -25.671875 "/></g></g></g><g fill="#000000" fill-opacity="1"><g transform="translate(338.387204, 356.694586)"><g><path d="M 7.0625 0 L 7.0625 -94.109375 L 21.390625 -94.109375 L 21.390625 -12.1875 L 39.515625 -12.1875 L 39.515625 0 Z M 7.0625 0 "/></g></g></g><g fill="#000000" fill-opacity="1"><g transform="translate(389.484759, 356.694586)"><g><path d="M 16.25 0 L 16.25 -37.59375 L 0.484375 -94.109375 L 14.171875 -94.109375 L 23.46875 -58.921875 L 23.6875 -58.921875 L 31.984375 -94.109375 L 45.609375 -94.109375 L 30.59375 -37.59375 L 30.59375 0 Z M 16.25 0 "/></g></g></g><g clip-path="url(#0e9e6b6afb)"><path fill="#191308" d="M 169.5625 153.433594 L 169.5625 148.058594 L 218.261719 148.058594 L 218.261719 153.433594 Z M 169.5625 153.433594 " fill-opacity="1" fill-rule="nonzero"/></g><g clip-path="url(#c499a82d82)"><path fill="#191308" d="M 147.792969 153.433594 L 147.792969 147.726562 L 164.585938 147.726562 L 164.585938 153.433594 Z M 147.792969 153.433594 " fill-opacity="1" fill-rule="nonzero"/></g><g clip-path="url(#10b67eeb0e)"><path fill="#191308" d="M 221.316406 163.722656 L 226.097656 163.722656 L 226.097656 219.261719 L 221.316406 219.261719 Z M 221.316406 163.722656 " fill-opacity="1" fill-rule="nonzero"/></g><g clip-path="url(#7e1326550d)"><path fill="#191308" d="M 221.3125 182.582031 L 221.3125 177.433594 L 235.289062 177.433594 L 235.289062 182.582031 Z M 221.3125 182.582031 " fill-opacity="1" fill-rule="nonzero"/></g><g clip-path="url(#ada67a30b8)"><path fill="#191308" d="M 221.316406 219.097656 L 221.316406 214.316406 L 237.128906 214.316406 L 237.128906 219.097656 Z M 221.316406 219.097656 " fill-opacity="1" fill-rule="nonzero"/></g><g clip-path="url(#84bf9ee03e)"><path fill="#191308" d="M 239.429688 207.5625 L 239.429688 202.414062 L 248.257812 202.414062 L 248.257812 207.5625 Z M 239.429688 207.5625 " fill-opacity="1" fill-rule="nonzero"/></g><g clip-path="url(#a4448e6bb3)"><path fill="#191308" d="M 252.351562 195.90625 L 252.351562 191.125 L 269.269531 191.125 L 269.269531 195.90625 Z M 252.351562 195.90625 " fill-opacity="1" fill-rule="nonzero"/></g><g clip-path="url(#d5ce54798c)"><path fill="#191308" d="M 246.886719 179.910156 L 246.886719 175.128906 L 277.78125 175.128906 L 277.78125 179.910156 Z M 246.886719 179.910156 " fill-opacity="1" fill-rule="nonzero"/></g><g clip-path="url(#8ccba4d095)"><path fill="#191308" d="M 259.613281 163.722656 L 265.132812 163.722656 L 265.132812 176.597656 L 259.613281 176.597656 Z M 259.613281 163.722656 " fill-opacity="1" fill-rule="nonzero"/></g><g clip-path="url(#07e5be91b4)"><path fill="#191308" d="M 258.878906 219.097656 L 258.878906 214.316406 L 296.394531 214.316406 L 296.394531 219.097656 Z M 258.878906 219.097656 " fill-opacity="1" fill-rule="nonzero"/></g><g clip-path="url(#a3c77dda3e)"><path fill="#191308" d="M 274.007812 202.46875 L 278.789062 202.46875 L 278.789062 216.445312 L 274.007812 216.445312 Z M 274.007812 202.46875 " fill-opacity="1" fill-rule="nonzero"/></g><g clip-path="url(#d14476cbe9)"><path fill="#191308" d="M 291.605469 179.914062 L 296.386719 179.914062 L 296.386719 214.484375 L 291.605469 214.484375 Z M 291.605469 179.914062 " fill-opacity="1" fill-rule="nonzero"/></g><g clip-path="url(#320f76d616)"><path fill="#191308" d="M 291.605469 163.722656 L 296.386719 163.722656 L 296.386719 171.449219 L 291.605469 171.449219 Z M 291.605469 163.722656 " fill-opacity="1" fill-rule="nonzero"/></g><g clip-path="url(#06edf091fc)"><path fill="#191308" d="M 235.1875 161.785156 L 235.1875 157.003906 L 247.324219 157.003906 L 247.324219 161.785156 Z M 235.1875 161.785156 " fill-opacity="1" fill-rule="nonzero"/></g><g clip-path="url(#de716fe199)"><path fill="#191308" d="M 248.429688 150.710938 L 248.429688 145.195312 L 259.464844 145.195312 L 259.464844 150.710938 Z M 248.429688 150.710938 " fill-opacity="1" fill-rule="nonzero"/></g><g clip-path="url(#6b72352c94)"><path fill="#191308" d="M 272.878906 156.902344 L 272.878906 151.386719 L 279.496094 151.386719 L 279.496094 156.902344 Z M 272.878906 156.902344 " fill-opacity="1" fill-rule="nonzero"/></g><g clip-path="url(#01d2984015)"><path fill="#191308" d="M 286.710938 151.550781 L 286.710938 146.035156 L 296.640625 146.035156 L 296.640625 151.550781 Z M 286.710938 151.550781 " fill-opacity="1" fill-rule="nonzero"/></g><g clip-path="url(#1cb9d8e784)"><path fill="#191308" d="M 151.390625 166.652344 L 208.957031 166.652344 L 208.957031 224.21875 L 151.390625 224.21875 Z M 147.792969 227.816406 L 212.554688 227.816406 L 212.554688 163.054688 L 147.792969 163.054688 L 147.792969 227.816406 " fill-opacity="1" fill-rule="nonzero"/></g><g clip-path="url(#c21fde8aa0)"><path fill="#191308" d="M 161.835938 177.347656 L 198.4375 177.347656 L 198.4375 213.351562 L 161.835938 213.351562 Z M 161.835938 177.347656 " fill-opacity="1" fill-rule="nonzero"/></g><g clip-path="url(#6f2f23667d)"><path fill="#191308" d="M 151.390625 76.875 L 208.957031 76.875 L 208.957031 134.441406 L 151.390625 134.441406 Z M 147.792969 138.039062 L 212.554688 138.039062 L 212.554688 73.277344 L 147.792969 73.277344 L 147.792969 138.039062 " fill-opacity="1" fill-rule="nonzero"/></g><g clip-path="url(#72c4d4f257)"><path fill="#191308" d="M 161.835938 87.570312 L 198.4375 87.570312 L 198.4375 123.574219 L 161.835938 123.574219 Z M 161.835938 87.570312 " fill-opacity="1" fill-rule="nonzero"/></g><g clip-path="url(#8bd872db7a)"><path fill="#191308" d="M 241.128906 76.875 L 298.695312 76.875 L 298.695312 134.441406 L 241.128906 134.441406 Z M 237.53125 138.039062 L 302.292969 138.039062 L 302.292969 73.277344 L 237.53125 73.277344 L 237.53125 138.039062 " fill-opacity="1" fill-rule="nonzero"/></g><g clip-path="url(#c0904d5f94)"><path fill="#191308" d="M 251.574219 87.570312 L 288.175781 87.570312 L 288.175781 123.574219 L 251.574219 123.574219 Z M 251.574219 87.570312 " fill-opacity="1" fill-rule="nonzero"/></g><g clip-path="url(#dc8bc60e31)"><path fill="#191308" d="M 228.054688 100.574219 L 222.222656 100.574219 L 222.222656 73.121094 L 228.054688 73.121094 Z M 228.054688 100.574219 " fill-opacity="1" fill-rule="nonzero"/></g><g clip-path="url(#9cc96af96e)"><path fill="#191308" d="M 228.054688 125.214844 L 222.222656 125.214844 L 222.222656 110.796875 L 228.054688 110.796875 Z M 228.054688 125.214844 " fill-opacity="1" fill-rule="nonzero"/></g><g clip-path="url(#44d6ab5edb)"><path fill="#191308" d="M 228.054688 140.855469 L 222.222656 140.855469 L 222.222656 131.589844 L 228.054688 131.589844 Z M 228.054688 140.855469 " fill-opacity="1" fill-rule="nonzero"/></g></svg>