<svg width="156" height="156" viewBox="0 0 156 156" fill="none" xmlns="http://www.w3.org/2000/svg">
<path d="M153 78C153 119.421 119.421 153 78 153C36.5786 153 3 119.421 3 78C3 36.5786 36.5786 3 78 3C119.421 3 153 36.5786 153 78Z" fill="#333333"/>
<path d="M106.125 40.5H59.5C59.3619 40.5 59.25 40.6119 59.25 40.75V59.25V78M59.25 78V115.5M59.25 78H82.6875H106.125M78 153V153C36.5786 153 3 119.421 3 78V78C3 36.5786 36.5786 3 78 3V3C119.421 3 153 36.5786 153 78V78C153 119.421 119.421 153 78 153Z" stroke="#19B391" stroke-opacity="0.76" stroke-width="6"/>
</svg>
