<svg width="252" height="150" viewBox="0 0 252 150" fill="none" xmlns="http://www.w3.org/2000/svg">
<path d="M37.5028 67.3027L41.4712 78.2309L47.1861 60.3117M25.6977 48.9651L2.96454 90.8048C2.43544 91.7786 2.45077 93.3863 2.99851 94.366L18.7852 122.603L31.2557 144.908C31.7875 145.86 32.6232 145.861 33.1348 144.912L55.2731 103.838L78.0061 58.385C78.4987 57.4 78.4669 55.8477 77.9347 54.8956L49.6561 4.31486C49.1171 3.35074 48.2679 3.36406 47.7593 4.34461L40.9001 17.571L25.6977 48.9651ZM51.2623 86.7961L51.0465 55.6584C51.037 54.2882 50.4328 53.1669 49.6944 53.1493L32.9112 52.7485C32.1676 52.7308 31.5705 53.8388 31.58 55.2188L31.7958 86.3564C31.8053 87.7266 32.4096 88.8479 33.1479 88.8656L49.9311 89.2663C50.6748 89.2841 51.2719 88.1761 51.2623 86.7961Z" stroke="#EEF0F2" stroke-width="5"/>
<path d="M111.965 60.548C112.161 60.856 112.329 61.276 112.469 61.808C112.637 62.312 112.721 62.844 112.721 63.404C112.721 64.496 112.483 65.28 112.007 65.756C111.559 66.204 110.943 66.428 110.159 66.428H101.339V71.174H110.537C110.761 71.482 110.943 71.888 111.083 72.392C111.251 72.896 111.335 73.428 111.335 73.988C111.335 75.052 111.097 75.822 110.621 76.298C110.173 76.746 109.557 76.97 108.773 76.97H101.423V85.832C101.115 85.916 100.625 86 99.9529 86.084C99.3089 86.168 98.6649 86.21 98.0209 86.21C97.3769 86.21 96.8029 86.154 96.2989 86.042C95.8229 85.958 95.4169 85.79 95.0809 85.538C94.7449 85.286 94.4929 84.936 94.3249 84.488C94.1569 84.04 94.0729 83.452 94.0729 82.724V64.454C94.0729 63.25 94.4229 62.298 95.1229 61.598C95.8229 60.898 96.7749 60.548 97.9789 60.548H111.965ZM123.735 85.832C123.427 85.916 122.937 86 122.265 86.084C121.621 86.168 120.977 86.21 120.333 86.21C119.689 86.21 119.115 86.154 118.611 86.042C118.135 85.958 117.729 85.79 117.393 85.538C117.057 85.286 116.805 84.936 116.637 84.488C116.469 84.04 116.385 83.452 116.385 82.724V60.548C116.693 60.492 117.183 60.422 117.855 60.338C118.527 60.226 119.171 60.17 119.787 60.17C120.431 60.17 120.991 60.226 121.467 60.338C121.971 60.422 122.391 60.59 122.727 60.842C123.063 61.094 123.315 61.444 123.483 61.892C123.651 62.34 123.735 62.928 123.735 63.656V85.832ZM136.49 80.54C136.798 80.596 137.176 80.652 137.624 80.708C138.072 80.736 138.492 80.75 138.884 80.75C139.836 80.75 140.704 80.61 141.488 80.33C142.3 80.05 142.986 79.616 143.546 79.028C144.134 78.44 144.582 77.684 144.89 76.76C145.226 75.808 145.394 74.674 145.394 73.358C145.394 70.838 144.806 68.948 143.63 67.688C142.454 66.4 140.886 65.756 138.926 65.756C138.534 65.756 138.128 65.77 137.708 65.798C137.316 65.826 136.91 65.868 136.49 65.924V80.54ZM138.842 86.672C138.366 86.672 137.82 86.658 137.204 86.63C136.588 86.602 135.944 86.546 135.272 86.462C134.628 86.378 133.97 86.266 133.298 86.126C132.654 86.014 132.052 85.846 131.492 85.622C129.952 85.034 129.182 84.012 129.182 82.556V62.942C129.182 62.354 129.336 61.906 129.644 61.598C129.98 61.262 130.428 60.996 130.988 60.8C132.192 60.408 133.466 60.156 134.81 60.044C136.154 59.904 137.358 59.834 138.422 59.834C140.606 59.834 142.58 60.1 144.344 60.632C146.136 61.164 147.662 61.99 148.922 63.11C150.21 64.202 151.204 65.588 151.904 67.268C152.604 68.948 152.954 70.936 152.954 73.232C152.954 75.472 152.618 77.432 151.946 79.112C151.274 80.764 150.308 82.164 149.048 83.312C147.816 84.432 146.332 85.272 144.596 85.832C142.86 86.392 140.942 86.672 138.842 86.672ZM157.155 64.454C157.155 63.25 157.505 62.298 158.205 61.598C158.905 60.898 159.857 60.548 161.061 60.548H174.921C175.117 60.856 175.285 61.262 175.425 61.766C175.593 62.27 175.677 62.802 175.677 63.362C175.677 64.426 175.439 65.182 174.963 65.63C174.515 66.078 173.913 66.302 173.157 66.302H164.295V70.208H173.745C173.941 70.516 174.109 70.922 174.249 71.426C174.417 71.902 174.501 72.42 174.501 72.98C174.501 74.044 174.277 74.8 173.829 75.248C173.381 75.696 172.779 75.92 172.023 75.92H164.295V80.33H175.089C175.285 80.638 175.453 81.044 175.593 81.548C175.761 82.052 175.845 82.584 175.845 83.144C175.845 84.208 175.607 84.978 175.131 85.454C174.683 85.902 174.081 86.126 173.325 86.126H161.061C159.857 86.126 158.905 85.776 158.205 85.076C157.505 84.376 157.155 83.424 157.155 82.22V64.454ZM192.897 65.672C190.741 65.672 189.089 66.33 187.941 67.646C186.793 68.962 186.219 70.824 186.219 73.232C186.219 75.668 186.849 77.544 188.109 78.86C189.397 80.176 191.119 80.834 193.275 80.834C194.423 80.834 195.389 80.68 196.173 80.372C196.985 80.064 197.755 79.714 198.483 79.322C198.959 79.714 199.323 80.19 199.575 80.75C199.855 81.282 199.995 81.912 199.995 82.64C199.995 83.788 199.351 84.768 198.063 85.58C196.803 86.364 194.871 86.756 192.267 86.756C190.391 86.756 188.627 86.49 186.975 85.958C185.323 85.426 183.881 84.614 182.649 83.522C181.417 82.402 180.437 81.002 179.709 79.322C179.009 77.614 178.659 75.584 178.659 73.232C178.659 71.048 178.995 69.13 179.667 67.478C180.367 65.798 181.305 64.384 182.481 63.236C183.685 62.088 185.085 61.22 186.681 60.632C188.277 60.044 189.985 59.75 191.805 59.75C194.381 59.75 196.369 60.17 197.769 61.01C199.197 61.85 199.911 62.928 199.911 64.244C199.911 64.972 199.729 65.602 199.365 66.134C199.001 66.666 198.581 67.086 198.105 67.394C197.377 66.918 196.593 66.512 195.753 66.176C194.941 65.84 193.989 65.672 192.897 65.672ZM207.819 86.126C206.615 86.126 205.663 85.776 204.963 85.076C204.263 84.376 203.913 83.424 203.913 82.22V60.506C204.221 60.45 204.711 60.38 205.383 60.296C206.055 60.184 206.699 60.128 207.315 60.128C207.959 60.128 208.519 60.184 208.995 60.296C209.499 60.38 209.919 60.548 210.255 60.8C210.591 61.052 210.843 61.402 211.011 61.85C211.179 62.298 211.263 62.886 211.263 63.614V80.204H220.881C221.077 80.512 221.259 80.932 221.427 81.464C221.595 81.968 221.679 82.5 221.679 83.06C221.679 84.18 221.441 84.978 220.965 85.454C220.489 85.902 219.859 86.126 219.075 86.126H207.819ZM235.972 85.832C235.664 85.916 235.188 86 234.544 86.084C233.9 86.168 233.27 86.21 232.654 86.21C231.366 86.21 230.4 86 229.756 85.58C229.112 85.132 228.79 84.208 228.79 82.808V77.138C228.09 76.102 227.334 74.954 226.522 73.694C225.71 72.434 224.912 71.146 224.128 69.83C223.344 68.514 222.616 67.226 221.944 65.966C221.272 64.678 220.726 63.502 220.306 62.438C220.67 61.934 221.16 61.472 221.776 61.052C222.42 60.632 223.204 60.422 224.128 60.422C225.22 60.422 226.102 60.646 226.774 61.094C227.474 61.542 228.132 62.382 228.748 63.614L232.234 70.628H232.486C232.878 69.76 233.214 68.976 233.494 68.276C233.802 67.548 234.096 66.834 234.376 66.134C234.656 65.406 234.95 64.664 235.258 63.908C235.566 63.124 235.916 62.228 236.308 61.22C236.812 60.968 237.372 60.772 237.988 60.632C238.604 60.492 239.192 60.422 239.752 60.422C240.732 60.422 241.558 60.688 242.23 61.22C242.93 61.724 243.28 62.494 243.28 63.53C243.28 63.866 243.21 64.272 243.07 64.748C242.93 65.224 242.608 65.952 242.104 66.932C241.6 67.884 240.858 69.186 239.878 70.838C238.926 72.49 237.624 74.646 235.972 77.306V85.832Z" fill="#7DDF64"/>
</svg>
